<svg id="visual" viewBox="0 0 900 600" width="900" height="600" xmlns="http://www.w3.org/2000/svg" xmlns:xlink="http://www.w3.org/1999/xlink" version="1.1"><rect x="0" y="0" width="900" height="600" fill="#140021"></rect><path d="M747 0L643 0L643 86L565 86L565 171L743 171L743 257L726 257L726 343L781 343L781 429L615 429L615 514L578 514L578 600L0 600L0 514L0 514L0 429L0 429L0 343L0 343L0 257L0 257L0 171L0 171L0 86L0 86L0 0L0 0Z" fill="#5f1292"></path><path d="M550 0L472 0L472 86L584 86L584 171L565 171L565 257L427 257L427 343L611 343L611 429L616 429L616 514L512 514L512 600L0 600L0 514L0 514L0 429L0 429L0 343L0 343L0 257L0 257L0 171L0 171L0 86L0 86L0 0L0 0Z" fill="#5939b1"></path><path d="M443 0L432 0L432 86L415 86L415 171L418 171L418 257L317 257L317 343L456 343L456 429L419 429L419 514L380 514L380 600L0 600L0 514L0 514L0 429L0 429L0 343L0 343L0 257L0 257L0 171L0 171L0 86L0 86L0 0L0 0Z" fill="#4d56cd"></path><path d="M304 0L279 0L279 86L201 86L201 171L322 171L322 257L230 257L230 343L281 343L281 429L313 429L313 514L279 514L279 600L0 600L0 514L0 514L0 429L0 429L0 343L0 343L0 257L0 257L0 171L0 171L0 86L0 86L0 0L0 0Z" fill="#3871e7"></path><path d="M105 0L225 0L225 86L102 86L102 171L173 171L173 257L159 257L159 343L165 343L165 429L184 429L184 514L127 514L127 600L0 600L0 514L0 514L0 429L0 429L0 343L0 343L0 257L0 257L0 171L0 171L0 86L0 86L0 0L0 0Z" fill="#008bff"></path></svg>